# xmcd CD database file
#
# Track frame offsets:
#	150
#	20105
#	42797
#	64572
#	95740
#
# Disc length: 1373 seconds
#
# Revision: 0
# Processed by: cddbd v1.5.1PL0 Copyright (c) Steve Scherf et al.
# Submitted via: CDex 1.51
#
DISCID=3c055b05
DTITLE=及川光博 - CRAZY A GO GO!!
DYEAR=2000
DGENRE=J-Pop
TTITLE0=CRAZY A GO GO !!
TTITLE1=若さのカタルシス
TTITLE2=フィアンセになりたい　〜ハリネズミのジレンマ〜
TTITLE3=CRAZY A GO GO !! 〜あれ?!ミッチーがいないぞ〜
TTITLE4=DATA
EXTD=YEAR: 2000
EXTT0=
EXTT1=
EXTT2=
EXTT3=
EXTT4=
PLAYORDER=
